<svg xmlns="http://www.w3.org/2000/svg" viewBox="0 0 1200 900"><style>.sans-serif{font-family:-apple-system,BlinkMacSystemFont,'avenir next', avenir,'helvetica neue',helvetica,ubuntu,roboto,noto,'segoe ui',arial,sans-serif}</style><g fill="none" fill-rule="evenodd"><g fill-rule="nonzero"><path fill="#D2D2D2" d="M1148 505v20H54v-20a5 5 0 015-5h1084a5 5 0 015 5z"></path><path fill="#A3A3A3" d="M61 506h4v4h-4zm6 0h4v4h-4zm6 0h4v4h-4z"></path></g><path d="M65.42 477.09h-1.704q-.128-1.079-1.037-1.675-.91-.597-2.23-.597-.966 0-1.687.313-.72.312-1.122.86-.401.546-.401 1.242 0 .582.28.998.28.415.721.689.44.273.923.447.483.174.888.28l1.477.398q.569.15 1.268.412.7.263 1.342.714.643.451 1.062 1.154.42.703.42 1.726 0 1.18-.615 2.13-.614.953-1.79 1.514-1.175.56-2.851.56-1.563 0-2.703-.504t-1.79-1.406q-.65-.902-.735-2.095h1.819q.07.824.557 1.36.487.536 1.236.796.75.259 1.616.259 1.008 0 1.81-.33.803-.33 1.272-.924.469-.593.469-1.388 0-.725-.405-1.18-.405-.454-1.065-.738-.66-.284-1.428-.497l-1.79-.511q-1.704-.49-2.699-1.4-.994-.909-.994-2.379 0-1.221.664-2.134.664-.913 1.79-1.42 1.126-.508 2.518-.508 1.406 0 2.5.5 1.093.501 1.736 1.368.643.866.678 1.967zm7.444 11.137q-1.577 0-2.717-.7-1.14-.699-1.754-1.96-.615-1.26-.615-2.936t.615-2.958q.614-1.282 1.719-2.003 1.104-.721 2.581-.721.852 0 1.683.284.831.284 1.513.92.682.635 1.087 1.68.405 1.043.405 2.57v.71h-8.41v-1.448h6.705q0-.924-.366-1.648-.365-.724-1.037-1.143-.67-.42-1.58-.42-1.001 0-1.73.494-.727.494-1.118 1.282-.39.788-.39 1.69v.966q0 1.236.43 2.092.429.856 1.196 1.3.767.444 1.783.444.66 0 1.196-.189.537-.188.927-.568.39-.38.604-.948l1.62.455q-.256.823-.86 1.445-.604.621-1.492.966-.887.344-1.995.344zm8.75-.227h-1.677v-10.91h1.62v1.649h.113q.299-.81 1.08-1.314.781-.505 1.761-.505.185 0 .462.008.277.007.419.02v1.705q-.085-.02-.387-.067-.302-.046-.636-.046-.795 0-1.417.33-.621.33-.98.91-.358.578-.358 1.317V488zm13.21-10.91h1.818L92.608 488h-1.705l-4.034-10.91h1.818l3.012 8.694h.114l3.01-8.693zm5.71 10.91h-1.676v-10.91h1.676V488zm-.824-12.727q-.49 0-.841-.334-.352-.334-.352-.803 0-.468.352-.802.351-.334.841-.334t.842.334q.351.334.351.802 0 .47-.351.803-.352.334-.842.334zm8.324 12.954q-1.534 0-2.642-.724-1.108-.725-1.705-1.996-.596-1.271-.596-2.905 0-1.662.614-2.937.615-1.274 1.719-1.995 1.104-.721 2.582-.721 1.15 0 2.074.426.923.426 1.512 1.193.59.767.732 1.79h-1.676q-.192-.746-.849-1.325-.657-.578-1.765-.578-.98 0-1.715.507-.735.508-1.144 1.428-.408.92-.408 2.155 0 1.265.401 2.202.402.938 1.137 1.456.735.519 1.73.519.653 0 1.185-.228.533-.227.902-.653.37-.426.526-1.023h1.676q-.142.966-.7 1.737-.557.77-1.47 1.221-.913.451-2.12.451zm11.307 0q-1.577 0-2.717-.7-1.14-.699-1.754-1.96-.614-1.26-.614-2.936t.614-2.958q.614-1.282 1.719-2.003 1.104-.721 2.581-.721.853 0 1.684.284.83.284 1.512.92.682.635 1.087 1.68.405 1.043.405 2.57v.71h-8.41v-1.448h6.705q0-.924-.365-1.648-.366-.724-1.037-1.143-.671-.42-1.58-.42-1.002 0-1.73.494t-1.119 1.282q-.39.788-.39 1.69v.966q0 1.236.43 2.092.43.856 1.196 1.3.767.444 1.783.444.66 0 1.197-.189.536-.188.926-.568.391-.38.604-.948l1.62.455q-.256.823-.86 1.445-.604.621-1.491.966-.888.344-1.996.344z" fill="#4A4A4A" fill-rule="nonzero"></path><path fill="#FF003C" d="M477 779.068c0 1.067-.626 1.932-1.399 1.932H278.399c-.773 0-1.399-.865-1.399-1.932V615a5 5 0 015-5h190a5 5 0 015 5v164.068z"></path><path fill="#CCC" d="M282 610h190a5 5 0 015 5v18H277v-18a5 5 0 015-5z"></path><path fill="#E74C3C" d="M294 622.5a4.5 4.5 0 11-9 0 4.5 4.5 0 019 0"></path><path fill="#F1C40F" d="M310 622.5a4.5 4.5 0 11-9 0 4.5 4.5 0 019 0"></path><path fill="#2ECC71" d="M325 622.5a4.5 4.5 0 11-9 0 4.5 4.5 0 019 0"></path><g fill="#FFF" class="sans-serif" fill-rule="nonzero"><path d="M339.73 694.455h7.206L338.355 719h-7.67l-8.582-24.545h7.191l5.098 17.562h.255l5.082-17.562zm16.277-8.182h6.504V719h-6.92v-26.16h-.191l-7.495 4.699v-6.137l8.102-5.13zm14.52 33.142q-1.581 0-2.708-1.126-1.127-1.127-1.127-2.709 0-1.566 1.127-2.684 1.127-1.119 2.709-1.119 1.534 0 2.684 1.119 1.15 1.118 1.15 2.684 0 1.055-.535 1.926-.535.87-1.398 1.39-.863.52-1.901.52zm18.756.304q-4.123-.016-7.088-2.03-2.964-2.013-4.554-5.832-1.59-3.82-1.574-9.189 0-5.353 1.59-9.124 1.59-3.772 4.554-5.745 2.965-1.974 7.072-1.974t7.07 1.982q2.965 1.981 4.563 5.745 1.598 3.763 1.582 9.116 0 5.386-1.59 9.205-1.59 3.82-4.546 5.833-2.956 2.013-7.08 2.013zm0-5.737q2.812 0 4.49-2.828 1.678-2.829 1.662-8.486 0-3.723-.759-6.2-.76-2.477-2.141-3.723-1.383-1.247-3.252-1.247-2.797 0-4.475 2.797-1.678 2.796-1.694 8.373 0 3.772.76 6.288.758 2.517 2.149 3.772 1.39 1.254 3.26 1.254zm18.755 5.433q-1.582 0-2.709-1.126-1.126-1.127-1.126-2.709 0-1.566 1.126-2.684 1.127-1.119 2.709-1.119 1.534 0 2.684 1.119 1.151 1.118 1.151 2.684 0 1.055-.535 1.926-.536.87-1.399 1.39-.863.52-1.901.52z"></path><path transform="translate(277 610)"></path><path d="M424.865 719.72q-4.123-.017-7.087-2.03-2.965-2.014-4.555-5.833-1.59-3.82-1.574-9.189 0-5.353 1.59-9.124 1.59-3.772 4.555-5.745 2.964-1.974 7.07-1.974 4.108 0 7.072 1.982 2.964 1.981 4.562 5.745 1.598 3.763 1.582 9.116 0 5.386-1.59 9.205-1.59 3.82-4.546 5.833-2.956 2.013-7.08 2.013zm0-5.738q2.812 0 4.49-2.828 1.678-2.829 1.662-8.486 0-3.723-.759-6.2-.759-2.477-2.141-3.723-1.383-1.247-3.252-1.247-2.797 0-4.475 2.797-1.678 2.796-1.694 8.373 0 3.772.76 6.288.759 2.517 2.149 3.772 1.39 1.254 3.26 1.254z"></path></g><g fill-rule="nonzero"><path fill="#9EEBCF" d="M379 524v86h-3v-86z"></path><path fill="#FFF" stroke="#9EEBCF" stroke-width="3" d="M384 523.5a6.5 6.5 0 11-13 0 6.5 6.5 0 1113 0z"></path><path fill="#9EEBCF" d="M377.5 614l-5.5-8h11z"></path></g><path fill="#FF003C" d="M700 779.068c0 1.067-.626 1.932-1.399 1.932H501.399c-.773 0-1.399-.865-1.399-1.932V615a5 5 0 015-5h190a5 5 0 015 5v164.068z"></path><path fill="#CCC" d="M505 610h190a5 5 0 015 5v18H500v-18a5 5 0 015-5z"></path><path fill="#E74C3C" d="M517 622.5a4.5 4.5 0 11-9 0 4.5 4.5 0 019 0"></path><path fill="#F1C40F" d="M533 622.5a4.5 4.5 0 11-9 0 4.5 4.5 0 019 0"></path><path fill="#2ECC71" d="M548 622.5a4.5 4.5 0 11-9 0 4.5 4.5 0 019 0"></path><g fill="#FFF" class="sans-serif" fill-rule="nonzero"><path d="M562.73 694.455h7.206L561.355 719h-7.67l-8.582-24.545h7.191l5.098 17.562h.255l5.082-17.562zm16.277-8.182h6.504V719h-6.92v-26.16h-.191l-7.495 4.699v-6.137l8.102-5.13zm14.52 33.142q-1.581 0-2.708-1.126-1.127-1.127-1.127-2.709 0-1.566 1.127-2.684 1.127-1.119 2.709-1.119 1.534 0 2.684 1.119 1.15 1.118 1.15 2.684 0 1.055-.535 1.926-.535.87-1.398 1.39-.863.52-1.901.52zm18.756.304q-4.123-.016-7.088-2.03-2.964-2.013-4.554-5.832-1.59-3.82-1.574-9.189 0-5.353 1.59-9.124 1.59-3.772 4.554-5.745 2.965-1.974 7.072-1.974t7.07 1.982q2.965 1.981 4.563 5.745 1.598 3.763 1.582 9.116 0 5.386-1.59 9.205-1.59 3.82-4.546 5.833-2.956 2.013-7.08 2.013zm0-5.737q2.812 0 4.49-2.828 1.678-2.829 1.662-8.486 0-3.723-.759-6.2-.76-2.477-2.141-3.723-1.383-1.247-3.252-1.247-2.797 0-4.475 2.797-1.678 2.796-1.694 8.373 0 3.772.76 6.288.758 2.517 2.149 3.772 1.39 1.254 3.26 1.254zm18.755 5.433q-1.582 0-2.709-1.126-1.126-1.127-1.126-2.709 0-1.566 1.126-2.684 1.127-1.119 2.709-1.119 1.534 0 2.684 1.119 1.151 1.118 1.151 2.684 0 1.055-.535 1.926-.536.87-1.399 1.39-.863.52-1.901.52z"></path><path transform="translate(500 610)"></path><path d="M647.865 719.72q-4.123-.017-7.087-2.03-2.965-2.014-4.555-5.833-1.59-3.82-1.574-9.189 0-5.353 1.59-9.124 1.59-3.772 4.555-5.745 2.964-1.974 7.07-1.974 4.108 0 7.072 1.982 2.964 1.981 4.562 5.745 1.598 3.763 1.582 9.116 0 5.386-1.59 9.205-1.59 3.82-4.546 5.833-2.956 2.013-7.08 2.013zm0-5.738q2.812 0 4.49-2.828 1.678-2.829 1.662-8.486 0-3.723-.759-6.2-.759-2.477-2.141-3.723-1.383-1.247-3.252-1.247-2.797 0-4.475 2.797-1.678 2.796-1.694 8.373 0 3.772.76 6.288.759 2.517 2.149 3.772 1.39 1.254 3.26 1.254z"></path></g><g fill-rule="nonzero"><path fill="#9EEBCF" d="M602 524v86h-3v-86z"></path><path fill="#FFF" stroke="#9EEBCF" stroke-width="3" d="M607 523.5a6.5 6.5 0 11-13 0 6.5 6.5 0 1113 0z"></path><path fill="#9EEBCF" d="M600.5 614l-5.5-8h11z"></path></g><path fill="#FF003C" d="M923 779.068c0 1.067-.626 1.932-1.399 1.932H724.399c-.773 0-1.399-.865-1.399-1.932V615a5 5 0 015-5h190a5 5 0 015 5v164.068z"></path><path fill="#CCC" d="M728 610h190a5 5 0 015 5v18H723v-18a5 5 0 015-5z"></path><path fill="#E74C3C" d="M740 622.5a4.5 4.5 0 11-9 0 4.5 4.5 0 019 0"></path><path fill="#F1C40F" d="M756 622.5a4.5 4.5 0 11-9 0 4.5 4.5 0 019 0"></path><path fill="#2ECC71" d="M771 622.5a4.5 4.5 0 11-9 0 4.5 4.5 0 019 0"></path><g fill="#FFF" class="sans-serif" fill-rule="nonzero"><path d="M785.73 694.455h7.206L784.355 719h-7.67l-8.582-24.545h7.191l5.098 17.562h.255l5.082-17.562zm16.277-8.182h6.504V719h-6.92v-26.16h-.191l-7.495 4.699v-6.137l8.102-5.13zm14.52 33.142q-1.581 0-2.708-1.126-1.127-1.127-1.127-2.709 0-1.566 1.127-2.684 1.127-1.119 2.709-1.119 1.534 0 2.684 1.119 1.15 1.118 1.15 2.684 0 1.055-.535 1.926-.535.87-1.398 1.39-.863.52-1.901.52zm18.756.304q-4.123-.016-7.088-2.03-2.964-2.013-4.554-5.832-1.59-3.82-1.574-9.189 0-5.353 1.59-9.124 1.59-3.772 4.554-5.745 2.965-1.974 7.072-1.974t7.07 1.982q2.965 1.981 4.563 5.745 1.598 3.763 1.582 9.116 0 5.386-1.59 9.205-1.59 3.82-4.546 5.833-2.956 2.013-7.08 2.013zm0-5.737q2.812 0 4.49-2.828 1.678-2.829 1.662-8.486 0-3.723-.759-6.2-.76-2.477-2.141-3.723-1.383-1.247-3.252-1.247-2.797 0-4.475 2.797-1.678 2.796-1.694 8.373 0 3.772.76 6.288.758 2.517 2.149 3.772 1.39 1.254 3.26 1.254zm18.755 5.433q-1.582 0-2.709-1.126-1.126-1.127-1.126-2.709 0-1.566 1.126-2.684 1.127-1.119 2.709-1.119 1.534 0 2.684 1.119 1.151 1.118 1.151 2.684 0 1.055-.535 1.926-.536.87-1.399 1.39-.863.52-1.901.52z"></path><path transform="translate(723 610)"></path><path d="M870.865 719.72q-4.123-.017-7.087-2.03-2.965-2.014-4.555-5.833-1.59-3.82-1.574-9.189 0-5.353 1.59-9.124 1.59-3.772 4.555-5.745 2.964-1.974 7.07-1.974 4.108 0 7.072 1.982 2.964 1.981 4.562 5.745 1.598 3.763 1.582 9.116 0 5.386-1.59 9.205-1.59 3.82-4.546 5.833-2.956 2.013-7.08 2.013zm0-5.738q2.812 0 4.49-2.828 1.678-2.829 1.662-8.486 0-3.723-.759-6.2-.759-2.477-2.141-3.723-1.383-1.247-3.252-1.247-2.797 0-4.475 2.797-1.678 2.796-1.694 8.373 0 3.772.76 6.288.759 2.517 2.149 3.772 1.39 1.254 3.26 1.254z"></path></g><g fill-rule="nonzero"><path fill="#9EEBCF" d="M825 524v86h-3v-86z"></path><path fill="#FFF" stroke="#9EEBCF" stroke-width="3" d="M830 523.5a6.5 6.5 0 11-13 0 6.5 6.5 0 1113 0z"></path><path fill="#9EEBCF" d="M823.5 614l-5.5-8h11z"></path></g><g fill="#B8E986"><path d="M600 518l-36-65h72z"></path><path d="M590 290h20v210h-20z"></path></g><g fill-rule="nonzero"><path fill="#151D38" d="M471 290l.038-70.382a2.799 2.799 0 012.799-2.798l54.217-.001c1.119-.44.72-.72.56-1-3.48-5.759-5.758-11.957-6.638-18.675-1.959-15.396 2.4-28.793 12.874-40.27.6-.64 1.2-1.24 1.84-1.84.52-.52.52-.52.04-1-1.64-1.559-3.119-3.278-4.358-5.198-2.8-4.439-4.358-9.277-4.478-14.556-.04-1.32.24-1.48 1.439-.88 1.28.64 2.599 1.2 3.998 1.64.16-2.32-.12-4.24-.16-6.199 0-.72-.04-1.4 0-2.12 0-.999.36-1.239 1.24-.719 1.399.8 2.798 1.52 4.278 2.12.88.36.88.36.8-.6-.24-2.52-.28-5.039 0-7.558.24-.96.679-1.12.999-.84.24.2.4.48.6.72 3.078 3.839 6.517 7.278 10.635 10.037 3.598 2.4 7.476 3.72 11.794 3.76 3.239.04 6.357-.64 9.356-1.8 2.799-1.08 5.597-2.2 8.516-2.84 2.958-.64 5.957-.92 8.916-.2 5.037 1.24 8.436 4.48 10.555 9.118.8 1.76 1.24 3.6 1.52 5.519.12.72.12.72.879.68 4.398-.32 8.636.36 12.474 2.639 4.598 2.759 7.157 6.918 8.156 12.077.72 3.799.52 7.558-.08 11.357-.48 2.959-1.28 5.878-2.239 8.717-.24.72-.4.68.48 1 4.478 1.52 7.277 4.6 8.076 9.238 1.12 6.358-2.958 11.997-8.876 13.396-1.08.24-2.199.4-3.318.28-.48-.08-.64.16-.76.6-.84 3.04-1.999 5.999-3.398 8.838-2.879 5.718-6.717 10.637-11.515 14.836-1.08.76-1.16 1.2-.92 1.8.56 1.56 1.04 3.159 1.56 4.718 3.238 10.078 6.517 20.115 9.715 30.193.24.72.56 1 1.28 1.12 3.158.68 5.157 2.639 5.997 5.758.16.68.28 1.4.4 2.08.76-.44 1.08-.88 1.56-1.28 1.358-1.12 2.878-1.36 4.517-.8 1.68.6 2.679 1.84 2.919 3.599.08.6.24.76.84.84 2.798.44 4.437 3.199 3.518 5.918-.24.68-.16 1.16.32 1.72 1.239 1.48 1.959 3.199 2.198 5.119.12.84 0 .84.92.84h16.512c0-1.68-.52-3-.8-4.44-1.878.12-3.158.44-4.397.84-.72.24-1.08.08-1.2-.32-.12-.36.16-.64.84-.84 1.16-.36 2.319-.68 3.478-1.04 1.16-.36.96-.08.96-1.359.04-.6-.2-.68-.52-.68H646.2c-1.04-.04-1.2-.24-1.2-.56.76-.6.96-.56 1.2-.56h5.677c.52 0 .72-.16.8-.68.2-1.359.24-1.359-1.12-1.759-1.12-.36-2.279-.68-3.398-1-.88-.36-1-.6-.92-.88.88-.4 1.12-.32 1.4-.24 1.36.4 2.678.8 4.038 1.24 1.839-2.839 3.398-4.838 5.517-6.358.4-.28.48-.6.48-1.04V256.69c.08-.56.48-.76.96-.48 3.958 3.679 7.436 6.918 10.875 10.117.92.88.64.88 1.679.12a21.562 21.562 0 0124.988 0c.96.68.68.84 1.72-.12 3.518-3.24 6.996-6.438 10.515-9.677.32-.28.6-.76 1.119-.56.56.2.36.76.36 1.16v17.955c0 1.16 0 1.16 1.08.84.959-.28 1.878-.56 2.838-.84 1.36.56 1.28.84.92.96l-2.28.72-2.038.6c-.56.919-.56 1.519-.52 2.079 2.879.24 4.638.24 6.397.24 1 .12 1.2.32 1.16.6-.72.56-1 .56-1.24.56h-5.557c-.8 0-.84 0-.84.76 0 1.239-.08.959.96 1.279 1.079.36 2.198.64 3.318 1 .92.4 1.04.64.92.96-2.36-.12-3.439-.48-4.558-.8-.64 1.64-.64 2.799-.64 3.998 0 .44.12.68.6.64h17.272c.44 0 .88-.04 1.319.2v.76c-1 .24-1.28.24-1.6.24H471z"></path><path fill="#CCD6DA" d="M517.38 283v-.08h44.573c1.046 0 1.046 0 1.046-1.035v-62.036c-.04-1.075-.643-1.712-1.728-1.831-.362-.04-.724 0-1.045 0H474.09c-1.487.04-2.09.677-2.09 2.11v61.916c0 .916 0 .916.965.916h.683c14.55.04 29.14.04 43.731.04z"></path><path fill="#FAE0D6" d="M546.226 216.81h14.533c1.514 0 2.668.883 2.947 2.247.08.36.08.682.08 1.043v16.567c0 .923.08.883.796.963 5.853.722 11.627.401 17.321-1.083 12.981-3.41 22.816-11.032 29.546-22.665 1.911-3.29 3.344-6.82 4.38-10.51.199-.722.199-.722-.478-.923l-1.075-.36c-.677-.281-.876-.522-.757-.923.12-.441.478-.482 1.195-.24 1.911.721 3.822.882 5.813.52 5.894-1.163 9.676-7.18 8.123-12.997-1.592-5.937-7.724-9.306-13.458-7.38-.28.08-.518.24-.797.28-.278.04-.478-.12-.597-.36-.12-.282-.04-.522.16-.683.159-.12.318-.2.517-.24.438-.161.836-.281 1.274-.402.08-.04.2-.08.239-.16.08-.2-.12-.16-.239-.2-.16-.08-.358-.121-.557-.201-2.987-1.043-5.854-2.367-8.482-4.132-4.778-3.129-8.481-7.22-10.87-12.476-1.115-2.487-1.872-5.094-2.31-7.822-.12-.802-.159-.802-.836-.441a5.99 5.99 0 00-.677.4c-3.544 2.087-7.167 3.852-10.99 5.296-8.242 3.089-16.684 4.332-25.404 2.768-6.053-1.083-11.707-3.25-16.644-7.06-.638-.482-.638-.482-1.155.04-4.46 4.292-8.004 9.226-10.552 14.842-3.942 8.785-5.137 17.931-3.663 27.439.995 6.458 3.304 12.435 6.729 17.97.398.683.836.964 1.672.964 4.699-.12 9.437-.08 14.216-.08z"></path><path fill="#FFF3A2" d="M564.046 261.011v21.716c0 .482.12.683.64.683 1.08-.04 2.16 0 3.279 0 4.039 0 8.078-.04 12.077-.04.84 0 .92.12.92.965v3.941c0 .644-.08.724.64.724h15.435c.52 0 .64-.201.68-.643.16-1.448.6-2.856 1.36-4.102.28-.443.32-.845.12-1.368-.84-2.493-1.64-5.026-2.44-7.52-1.959-6.112-3.958-12.225-5.918-18.337a3.969 3.969 0 01-.2-.644c-.08-.362.08-.643.44-.723.32-.08.56.08.68.361l.12.362 4.199 13.03c1.32 4.102 2.64 8.203 3.999 12.265.24.684.24.724.76.241 1.44-1.407 3.119-2.332 5.078-2.774.6-.161.64-.161.48-.765-.32-1.327-.68-2.694-.96-4.02-.92-4.022 1.52-8.164 5.479-9.21.24-.08.52-.08.76-.16.28-.041.4-.202.28-.483-.04-.161-.08-.322-.16-.443-3.12-9.732-6.279-19.504-9.398-29.235-.56-1.81-1.16-3.62-1.76-5.43-.12-.401-.32-.562-.64-.2-.12.12-.24.2-.4.281-2.638 1.97-5.478 3.7-8.477 5.067-5.839 2.694-11.997 4.223-18.435 4.464-2.72.12-5.439.08-8.118-.322-.44-.08-.6.08-.56.483v.764c.04 7.037.04 14.075.04 21.072z"></path><path fill="#C27659" d="M691.629 288.92h17.513c.838 0 .838 0 .838-.85v-29.592c0-.162.08-.364-.08-.445-.24-.121-.319.121-.478.243-2.155 2.021-4.309 4.002-6.503 6.023-1.317 1.213-2.633 2.466-3.95 3.68-.558.525-.638.484-1.236.08-.2-.121-.36-.283-.52-.404-3.15-2.386-6.661-3.8-10.571-4.083-5.226-.405-9.974 1.05-14.162 4.285-.918.727-.918.727-1.756-.04a.552.552 0 00-.16-.122 2090.163 2090.163 0 00-9.534-8.975c-.24-.242-.479-.687-.798-.566-.24.122-.12.566-.12.89v10.47c0 .485-.04.89-.558 1.213-5.745 3.921-7.101 11.562-3.75 17.464.319.566.678.809 1.356.809 4.229-.04 8.498 0 12.726-.04.28 0 .679.12.798-.122.12-.242-.279-.444-.478-.647-2.075-2.263-2.713-4.891-1.836-7.802.878-2.91 2.913-4.649 5.785-5.336.599-.162 1.197-.243 1.795-.162.32.04.519.243.519.606 0 .283-.16.486-.479.526-.359.04-.678.08-1.037.121-2.753.364-5.106 2.466-5.665 5.175a6.704 6.704 0 002.992 7.115 3.714 3.714 0 001.995.566c5.904-.121 11.649-.08 17.354-.08z"></path><path fill="#CCD6DA" d="M517.453 284.042c-8.157.036-16.314.036-24.472.036h-20.413c-.402 0-.603.142-.563.499v2.14c0 1.283 0 1.283 1.447 1.283 11.452 0 22.945 0 34.397-.036 17.882 0 35.724-.035 53.606-.035h.764c.562-.036.763-.214.763-.713.04-.928 0-1.819 0-2.746 0-.392-.2-.5-.603-.464h-.683c-4.26 0-8.479.036-12.738.036h-31.505zm99.508 4.917h17.559c.355.041.514-.08.474-.487-.198-1.707-.79-3.252-1.819-4.634-.158-.243-.316-.203-.395.082-.04.122-.08.244-.159.365-1.305 2.805-4.547 3.577-6.92 1.626-.435-.366-.712-.447-1.226-.203-1.463.61-2.847.406-4.152-.488-1.385-.975-2.017-2.357-1.899-4.105.04-.61 0-.65-.514-.487-1.226.325-2.372.203-3.48-.447-.277-.163-.514-.163-.83-.163-1.82 0-3.678-.04-5.497 0-4.192.081-7.79 3.048-8.858 7.234a7.954 7.954 0 00-.238 1.342c-.04.284.08.406.356.406h.752c5.655-.04 11.27-.04 16.846-.04z"></path><path fill="#FAE0D6" d="M610.007 278.287h2.188c.289 0 .454-.077.33-.386-.826-2.127-.95-4.408-1.445-6.612-.124-.502.083-.812.454-.889.372-.077.62.155.743.657.124.503.207 1.044.29 1.547.247 1.314.453 2.629.742 3.905.413 1.74 2.106 2.745 3.964 2.435 1.816-.348 2.972-1.894 2.683-3.634-.248-1.508-.496-2.977-.867-4.446-.784-3.286-4.293-5.374-7.802-4.756-3.344.58-5.78 3.867-5.202 7.076.29 1.546.784 3.054 1.156 4.6.083.349.289.503.702.503h2.064zm9.993 3.36c.082 1.124.45 2.007 1.348 2.649 1.88 1.364 4.413.682 5.23-1.485a301.196 301.196 0 002.248-6.46c.082-.24.122-.482.163-.763.123-1.564-.817-2.969-2.37-3.45-1.511-.442-3.187.2-3.922 1.605-.49.963-.9 2.006-1.063 3.09a6.408 6.408 0 01-.776 2.246c-.49.843-.776 1.726-.858 2.568z"></path><path fill="#CCD6DA" d="M571.838 288v-.036h7.472c.406-.036.69-.18.69-.577v-3.027c0-.252-.162-.36-.447-.36h-9.908c-1.665 0-3.33.036-4.955.036-.487 0-.69.144-.69.577.04.9 0 1.801 0 2.666 0 .685 0 .721.812.721h7.026z"></path><path fill="#FAE0D6" d="M633 280.398c0-1.79-1.151-3.074-2.9-3.347-.767-.116-.852-.077-1.108.584-.469 1.245-.895 2.49-1.364 3.697-.426 1.09-.64 2.295-1.492 3.23-.299.31-.043.505.17.7 1.791 1.362 4.52.778 5.458-1.245.426-.934.767-1.907 1.108-2.88.128-.311.128-.623.128-.74z"></path><path fill="#151D38" d="M528.982 251.205c-.317 4.863-3.328 8.491-7.766 9.528-5.707 1.355-11.334-2.592-12.126-8.452-.674-4.943 2.496-9.967 7.648-11.163 1.11-.239 1.189-.199 1.347.917.674 3.788 3.21 6.578 6.895 7.415.872.2 1.744.24 2.655.16 1.189-.12 1.308 0 1.347 1.196.04.2 0 .399 0 .399z"></path><path fill="#FFF" d="M519.175 260c.607-.041 1.415-.123 2.223-.328 3.597-.983 6.427-4.424 6.588-8.111.04-.82.04-.82-.727-.82-4.81.082-9.013-3.195-10.104-7.947-.243-1.065-.364-.82-1.01-.614-4.164 1.392-6.75 5.735-6.023 10.2.687 4.342 4.527 7.66 9.053 7.62z"></path><path fill="#151D38" d="M562.814 180.365h13.172c2.018 0 4.035.08 6.053.121.949.04 1.186.365.751 1.175-2.967 5.632-7.318 9.562-13.528 10.9-6.25 1.336-11.749-.406-16.456-4.822-1.86-1.742-3.284-3.85-4.43-6.159-.12-.243-.238-.446-.317-.689-.158-.486 0-.729.514-.85.198-.041.396-.041.554-.041l11.67.122c.672 0 1.305.08 1.977.08.04.082.04.122.04.163z"></path><path fill="#FFF" d="M566.073 181.154h-3.574c-1.486 0-2.932 0-4.418-.077-2.53-.077-5.06-.077-7.59-.077-.562 0-.602.039-.32.502a18.183 18.183 0 003.855 4.824c4.417 3.86 9.557 5.442 15.42 4.322 5.381-1.042 9.317-4.052 12.208-8.452.522-.81.522-.849-.482-.849-5.02-.077-10.08-.154-15.1-.193z"></path><path fill="#E5384A" d="M528 186.5c0-3.27 2.452-6.46 6.539-6.5 3.58-.039 6.461 2.92 6.461 6.5 0 3.62-2.88 6.5-6.5 6.5-3.58-.039-6.5-2.92-6.5-6.5zm76.99 1.02c.156 3.123-2.535 6.441-6.475 6.48-3.59 0-6.476-2.889-6.515-6.48 0-3.67 2.848-6.519 6.515-6.519 3.862-.078 6.67 3.24 6.475 6.52z"></path><path fill="#151D38" d="M543.478 172c1.975 0 3.564 1.546 3.521 3.521.001 1.933-1.546 3.479-3.435 3.479-1.975 0-3.564-1.546-3.564-3.521 0-1.89 1.546-3.436 3.478-3.479zm45.044 1c1.975 0 3.478 1.546 3.478 3.564-.043 1.932-1.589 3.478-3.521 3.435-1.89 0-3.478-1.588-3.478-3.478a3.43 3.43 0 013.52-3.52zm36.477 18.06c-.04 4.067-4.208 6.933-8.176 5.616a1.449 1.449 0 01-.36-.155c-.402-.155-.562-.426-.402-.813.12-.349.481-.387.802-.31.2.039.44.155.641.194 2.766.736 5.652-.969 6.213-3.641.561-2.75-1.363-5.346-4.209-5.733-.24-.039-.52-.077-.761-.116-.28-.039-.441-.271-.441-.543 0-.348.2-.503.521-.542.2-.039.44 0 .681 0 3.167.349 5.532 2.944 5.491 6.043zm-59.001-19.375c0 .284-.223.447-.483.568a68.82 68.82 0 01-2.378 1.3c-.334.162-.408.324-.074.568.669.487 1.3 1.014 1.969 1.501.186.122.334.244.483.406.186.203.186.487.037.731s-.371.284-.631.203a.761.761 0 01-.372-.244c-1.003-.77-2.043-1.542-3.046-2.354-.706-.568-.669-.974.111-1.42 1.115-.65 2.266-1.259 3.418-1.868.557-.203 1.003 0 .966.609zM535 173.924c.114-2.898 2.01-5.3 4.703-5.837.304-.083.607-.125.91-.042.228.042.38.249.38.497.038.29-.076.538-.341.62a5.256 5.256 0 01-.797.166c-2.048.456-3.414 2.112-3.641 4.347-.038.249-.038.456-.038.704-.038.373-.19.621-.57.621-.378 0-.53-.29-.568-.662-.038-.125-.038-.249-.038-.414zm61-.021c0 .162 0 .447-.04.69-.077.285-.273.407-.547.407s-.47-.163-.509-.447c-.039-.203 0-.407-.039-.57-.117-2.397-1.643-4.226-3.913-4.673-.117-.04-.234-.04-.352-.081-.391-.082-.665-.285-.587-.732.079-.447.43-.528.783-.488 1.33.163 2.465.691 3.443 1.626 1.096 1.179 1.683 2.56 1.761 4.268zm88.66 112.088c-1.5-.043-2.514-.472-3.285-1.503-.324-.387-.446-.387-.77 0-1.42 1.675-3.488 1.976-5.15.816-.568-.387-1.015-.945-1.339-1.59-.162-.343-.203-.773.203-.988.405-.214.649 0 .851.387.122.258.284.515.487.773 1.338 1.504 3.69 1.031 4.42-.859.163-.43.203-.687-.324-.816-.73-.215-1.176-.816-1.663-1.375a1.489 1.489 0 01-.365-.816c-.121-.601.082-.988.69-.988 1.703-.043 3.447-.043 5.15 0 .568 0 .77.387.609.988-.244.988-.974 1.504-1.704 2.02-.243.17-.649.128-.73.429-.08.386.163.773.406 1.117 1.095 1.589 3.285 1.589 4.42 0 .122-.172.244-.43.365-.602.203-.3.487-.343.77-.215.285.172.366.473.244.774a4.074 4.074 0 01-1.095 1.546c-.73.601-1.54.945-2.19.902zm13.34-10.99c1.715 0 3 1.328 3 2.999 0 1.714-1.371 3.042-3.085 2.999-1.671-.043-2.957-1.371-2.914-3.085-.043-1.67 1.286-2.956 3-2.913zM662.98 281c-1.66 0-2.979-1.277-2.979-2.979 0-1.702 1.234-2.978 2.936-3.021 1.745 0 3.064 1.277 3.064 2.979-.043 1.702-1.32 3.021-3.021 3.021z"></path></g><g fill="#7DA159" class="sans-serif" fill-rule="nonzero"><path d="M625.264 303.455h3.075V318h-3.075v-14.545zm8.58 8.238V318h-3.026v-10.91h2.884v1.926h.128q.362-.952 1.214-1.51.852-.557 2.067-.557 1.136 0 1.981.497.845.497 1.314 1.417.469.92.469 2.191V318h-3.026v-6.406q.008-1.002-.51-1.566-.52-.565-1.428-.565-.611 0-1.076.263-.466.263-.725.763-.26.501-.266 1.204zm14.34 6.52q-1.677 0-2.88-.714-1.205-.713-1.847-1.985-.643-1.271-.643-2.926 0-1.676.65-2.944t1.85-1.981q1.2-.714 2.855-.714 1.428 0 2.5.518 1.072.519 1.697 1.456.625.938.69 2.202H650.2q-.12-.817-.635-1.317-.515-.501-1.346-.501-.703 0-1.225.38-.522.38-.814 1.104-.29.725-.29 1.754 0 1.044.287 1.776t.813 1.115q.526.384 1.229.384.518 0 .934-.213.415-.214.689-.622.273-.408.358-.984h2.855q-.07 1.25-.678 2.199-.607.948-1.672 1.48-1.066.533-2.522.533zm11.746 0q-1.654 0-2.858-.707-1.204-.706-1.858-1.974-.653-1.268-.653-2.944 0-1.69.653-2.958.654-1.268 1.858-1.974 1.204-.707 2.858-.707 1.655 0 2.86.707 1.203.706 1.856 1.974.654 1.268.654 2.958 0 1.676-.654 2.944-.653 1.268-1.857 1.974-1.204.707-2.859.707zm.015-2.344q.752 0 1.257-.43.504-.43.763-1.175.26-.746.26-1.697 0-.952-.26-1.698-.259-.745-.763-1.179-.505-.433-1.257-.433-.76 0-1.275.433-.515.434-.774 1.18-.26.745-.26 1.697 0 .951.26 1.697.259.746.774 1.176.515.43 1.275.43zM670.3 318h-3.026v-10.91h2.884v1.926h.128q.34-.96 1.136-1.513.795-.554 1.903-.554 1.122 0 1.91.557.79.558 1.052 1.51h.114q.333-.938 1.21-1.503.878-.564 2.078-.564 1.527 0 2.482.97.955.969.955 2.744V318h-3.018v-6.74q0-.91-.483-1.364-.483-.454-1.207-.454-.824 0-1.286.522-.462.522-.462 1.374V318h-2.933v-6.804q0-.803-.458-1.278-.458-.476-1.204-.476-.504 0-.905.252-.402.252-.636.703-.234.451-.234 1.055V318zm18.238 0h-3.025v-10.91h3.025V318zm-1.498-12.315q-.675 0-1.158-.451-.483-.451-.483-1.083 0-.625.483-1.076.483-.451 1.15-.451.682 0 1.162.45.48.452.48 1.077 0 .632-.48 1.083-.48.45-1.154.45zm6.939 6.008V318h-3.026v-10.91h2.884v1.926h.127q.363-.952 1.215-1.51.852-.557 2.067-.557 1.136 0 1.981.497.845.497 1.314 1.417.469.92.469 2.191V318h-3.026v-6.406q.007-1.002-.511-1.566-.518-.565-1.428-.565-.61 0-1.076.263-.465.263-.724.763-.26.501-.266 1.204zm14.325 10.554q-1.47 0-2.518-.398-1.047-.397-1.665-1.072-.618-.675-.803-1.499l2.798-.376q.128.298.405.565.277.266.735.436.458.17 1.119.17.987 0 1.63-.468.643-.469.643-1.541v-1.996h-.128q-.199.455-.597.86-.397.404-1.022.66t-1.492.256q-1.229 0-2.234-.572t-1.598-1.754q-.593-1.183-.593-2.994 0-1.854.604-3.096.604-1.243 1.609-1.861 1.005-.618 2.205-.618.916 0 1.534.309t.998.767q.38.458.586.898h.114v-1.832h3.004v11.016q0 1.363-.682 2.283-.682.92-1.886 1.388-1.204.47-2.766.47zm.064-6.676q.731 0 1.24-.366.507-.366.78-1.05.274-.686.274-1.645t-.27-1.666q-.27-.706-.781-1.097-.512-.39-1.243-.39-.746 0-1.257.4-.512.402-.774 1.112-.263.71-.263 1.64 0 .946.266 1.63.267.686.774 1.06.508.372 1.254.372z"></path><path transform="translate(471 119)"></path><path d="M624.44 329.09h6.57v2.274h-6.57v-2.273zm1.492 7.955v-10.568h3.025v10.17q0 .42.128.65.128.231.359.324.23.092.536.092.213 0 .426-.039l.327-.06.476 2.251q-.227.071-.64.167-.411.096-1 .117-1.095.043-1.915-.291-.82-.334-1.275-1.037-.454-.703-.447-1.776zm10.07 2.955h-3.025v-10.91h2.934v1.904h.113q.298-1.015 1.002-1.537.703-.522 1.619-.522.227 0 .49.028t.462.078v2.685q-.213-.064-.59-.114-.376-.05-.689-.05-.667 0-1.19.288-.521.288-.823.8-.302.51-.302 1.178V340zm7.955.206q-1.044 0-1.86-.366-.817-.366-1.29-1.086-.472-.721-.472-1.8 0-.91.334-1.528t.91-.994q.574-.377 1.31-.568.735-.192 1.544-.27.952-.1 1.534-.188.583-.09.845-.267.263-.177.263-.525v-.043q0-.675-.422-1.044-.423-.37-1.197-.37-.817 0-1.3.36-.483.358-.639.898l-2.798-.227q.213-.995.838-1.723.625-.728 1.616-1.122.99-.394 2.297-.394.91 0 1.744.213t1.484.66q.65.448 1.026 1.147.377.7.377 1.673V340h-2.87v-1.513h-.085q-.262.512-.703.899-.44.387-1.058.603-.618.217-1.428.217zm.867-2.088q.667 0 1.179-.266.511-.267.802-.721.292-.455.292-1.03v-1.158q-.142.093-.387.167-.246.075-.55.135-.306.06-.612.107-.305.046-.554.081-.532.078-.93.249-.398.17-.618.458-.22.288-.22.714 0 .618.45.94.452.324 1.148.324zm6.761-9.027h6.733v2.273h-6.733v-2.273zm4.56 10.909h-3.019v-11.697q0-1.187.466-1.968.465-.781 1.274-1.172.81-.39 1.84-.39.696 0 1.275.106.579.107.863.192l-.54 2.273q-.178-.057-.437-.107-.259-.05-.529-.05-.668 0-.93.31-.263.308-.263.862V340zm3.153-10.91h6.733v2.274h-6.733v-2.273zm4.56 10.91h-3.019v-11.697q0-1.187.466-1.968.465-.781 1.275-1.172.81-.39 1.839-.39.696 0 1.275.106.579.107.863.192l-.54 2.273q-.178-.057-.437-.107-.259-.05-.529-.05-.667 0-.93.31-.263.308-.263.862V340zm7.045 0h-3.025v-10.91h3.025V340zm-1.498-12.315q-.675 0-1.158-.451-.483-.451-.483-1.083 0-.625.483-1.076.483-.451 1.15-.451.683 0 1.162.45.48.452.48 1.077 0 .632-.48 1.083-.48.45-1.154.45zm8.842 12.528q-1.676 0-2.88-.714-1.204-.713-1.846-1.985-.643-1.271-.643-2.926 0-1.676.65-2.944t1.85-1.981q1.2-.714 2.855-.714 1.428 0 2.5.518 1.072.519 1.697 1.456.625.938.69 2.202h-2.856q-.12-.817-.635-1.317-.515-.501-1.346-.501-.703 0-1.225.38-.522.38-.814 1.104-.29.725-.29 1.754 0 1.044.287 1.776t.813 1.115q.526.384 1.229.384.518 0 .934-.213.415-.214.689-.622.273-.408.358-.984h2.855q-.07 1.25-.678 2.199-.607.948-1.673 1.48-1.065.533-2.52.533z"></path></g></g></svg>